<svg width="50" height="50" viewBox="0 0 50 50" fill="none" xmlns="http://www.w3.org/2000/svg">
<g clip-path="url(#clip0_17_80)">
<path d="M50 23.2796C50 23.8014 49.5769 24.2245 49.0551 24.2245H47.4802V30.4721C47.4802 33.6381 45.8066 36.4196 43.2987 37.982L45.1882 41.4964C45.4353 41.9561 45.2631 42.529 44.8034 42.7763C44.661 42.8526 44.5079 42.8892 44.3567 42.8892C44.0201 42.8892 43.6943 42.7087 43.5238 42.3917L41.5953 38.8045C40.6698 39.134 39.6746 39.315 38.6373 39.315H11.3627C10.4757 39.315 9.61936 39.1822 8.81101 38.9382L6.95432 42.3917C6.78377 42.709 6.45779 42.8892 6.12141 42.8892C5.97023 42.8892 5.81716 42.8528 5.67472 42.7763C5.21503 42.529 5.04283 41.9561 5.28991 41.4964L7.0644 38.196C4.35613 36.6828 2.51976 33.7884 2.51976 30.4718V24.2243H0.94488C0.42307 24.2243 0 23.8012 0 23.2794C0 22.7576 0.42307 22.3345 0.94488 22.3345H3.46464H46.5354H49.0551C49.5769 22.3347 50 22.7578 50 23.2796ZM0.94488 14.3654H11.122C11.9686 14.3654 12.6574 15.0542 12.6574 15.9008V17.9087C12.6574 18.4305 13.0805 18.8536 13.6023 18.8536C14.1241 18.8536 14.5471 18.4305 14.5471 17.9087V15.9008C14.5471 14.0122 13.0105 12.4756 11.122 12.4756H0.94488C0.42307 12.4756 0 12.8987 0 13.4205C0 13.9423 0.42307 14.3654 0.94488 14.3654ZM2.18504 11.4807H3.79913C4.32094 11.4807 4.74401 11.0576 4.74401 10.5358V8.05548C4.74401 7.53367 4.32094 7.1106 3.79913 7.1106H2.18504C0.980077 7.1106 0 8.09067 0 9.29563C0 10.5006 0.980077 11.4807 2.18504 11.4807Z" fill="black"/>
</g>
<defs>
<clipPath id="clip0_17_80">
<rect width="50" height="50" fill="white"/>
</clipPath>
</defs>
</svg>
