<svg width="50" height="50" viewBox="0 0 50 50" fill="none" xmlns="http://www.w3.org/2000/svg">
<path d="M25 4.00391C16.2523 4.00391 9.1797 11.0765 9.1797 19.8242C9.1797 28.572 16.2523 35.6445 25 35.6445C33.7478 35.6445 40.8203 28.572 40.8203 19.8242C40.8203 11.0765 33.7478 4.00391 25 4.00391ZM39.8323 4.97383L38.6362 6.26191C42.7554 10.0868 43.7508 13.8896 44.0398 17.8303L45.7928 17.7018C45.4871 13.5324 44.2843 9.10781 39.8323 4.97383ZM44.6501 5.02305L43.365 6.22217C44.9896 7.96318 46.1965 10.4438 46.5666 12.5114L48.297 12.2017C47.8562 9.73916 46.5362 7.04453 44.6501 5.02305ZM25 15.4297C27.6759 15.4297 29.8828 17.6366 29.8828 20.3125C29.8828 22.9884 27.6759 25.1953 25 25.1953C22.3241 25.1953 20.1172 22.9884 20.1172 20.3125C20.1172 17.6366 22.3241 15.4297 25 15.4297ZM25 18.9453C24.2241 18.9453 23.6328 19.5366 23.6328 20.3125C23.6328 21.0884 24.2241 21.6797 25 21.6797C25.7759 21.6797 26.3672 21.0884 26.3672 20.3125C26.3672 19.5366 25.7759 18.9453 25 18.9453ZM5.9756 21.4113L4.22247 21.5398C4.52814 25.7092 5.73097 30.134 10.1829 34.268L11.379 32.9798C7.25988 29.1548 6.26456 25.3521 5.9756 21.4113ZM44.6667 25.6636C43.3288 25.6636 42.2253 26.7671 42.2253 28.105C42.2253 29.3316 43.153 30.3605 44.3384 30.5233C45.1001 34.766 43.7159 39.7954 39.9414 43.4132V45.7433C45.0816 41.6669 47.0465 35.4204 46.0505 30.1102C46.6872 29.6674 47.1081 28.9311 47.1081 28.105C47.1081 26.7671 46.0046 25.6636 44.6667 25.6636ZM3.44864 26.7304L1.71857 27.0401C2.15929 29.5026 3.47902 32.1974 5.36515 34.2188L6.65031 33.0194C5.0257 31.2784 3.81876 28.7979 3.44864 26.7304ZM13.3789 33.0044V39.7461H36.6211V33.0044C33.5215 35.7401 29.4527 37.4023 25 37.4023C20.5474 37.4023 16.4785 35.7401 13.3789 33.0044ZM11.8164 41.5039V48.1445H38.1836V41.5039H11.8164Z" fill="black"/>
</svg>
