<svg width="50" height="50" viewBox="0 0 50 50" fill="none" xmlns="http://www.w3.org/2000/svg">
<path d="M38.7875 15.5459L13.3396 4.34378C12.8304 4.12054 12.2534 4.10856 11.7354 4.31044C11.4794 4.41186 11.246 4.56292 11.0487 4.75492C10.8513 4.94693 10.6939 5.17608 10.5854 5.42919L4.33542 20.0125C4.11778 20.5203 4.11074 21.0938 4.31585 21.6067C4.52097 22.1197 4.92143 22.5302 5.42917 22.7479L19.9229 28.9584L17.3396 35.4167H8.33334V29.1667H4.16667V45.8334H8.33334V39.5834H17.3396C19.0542 39.5834 20.5729 38.5542 21.2063 36.9625L23.7521 30.6L30.875 33.6521C31.3805 33.8693 31.9514 33.8778 32.4631 33.6756C32.9748 33.4734 33.3858 33.077 33.6063 32.5729L39.8563 18.2875C40.0774 17.7821 40.0891 17.2097 39.8887 16.6957C39.6884 16.1818 39.2923 15.7682 38.7875 15.5459ZM41.5208 34.1084L37.65 32.5625L41.8125 22.1459L45.6833 23.6896L41.5208 34.1084Z" fill="black"/>
</svg>
