<svg width="67" height="67" viewBox="0 0 67 67" fill="none" xmlns="http://www.w3.org/2000/svg">
<g filter="url(#filter0_d_4_428)">
<rect x="4" y="4" width="59" height="59" rx="15" fill="#E76F51" shape-rendering="crispEdges"/>
<path fill-rule="evenodd" clip-rule="evenodd" d="M33.5 24.75C28.6711 24.75 24.75 28.6711 24.75 33.5C24.75 38.3289 28.6711 42.25 33.5 42.25C38.3289 42.25 42.25 38.3289 42.25 33.5C42.25 28.6711 38.3289 24.75 33.5 24.75ZM33.5 26.9375C37.1214 26.9375 40.0625 29.8786 40.0625 33.5C40.0625 37.1214 37.1214 40.0625 33.5 40.0625C29.8786 40.0625 26.9375 37.1214 26.9375 33.5C26.9375 29.8786 29.8786 26.9375 33.5 26.9375ZM32.4062 45.5312V48.8125C32.4062 49.4162 32.8962 49.9062 33.5 49.9062C34.1038 49.9062 34.5938 49.4162 34.5938 48.8125V45.5312C34.5938 44.9275 34.1038 44.4375 33.5 44.4375C32.8962 44.4375 32.4062 44.9275 32.4062 45.5312ZM24.2195 41.2339L21.8986 43.5537C21.472 43.9814 21.472 44.6737 21.8986 45.1014C22.3263 45.528 23.0186 45.528 23.4462 45.1014L25.7661 42.7805C26.1927 42.3539 26.1927 41.6605 25.7661 41.2339C25.3395 40.8073 24.6461 40.8073 24.2195 41.2339ZM21.4688 32.4062H18.1875C17.5838 32.4062 17.0938 32.8962 17.0938 33.5C17.0938 34.1038 17.5838 34.5938 18.1875 34.5938H21.4688C22.0725 34.5938 22.5625 34.1038 22.5625 33.5C22.5625 32.8962 22.0725 32.4062 21.4688 32.4062ZM25.7661 24.2195L23.4462 21.8986C23.0186 21.472 22.3263 21.472 21.8986 21.8986C21.472 22.3263 21.472 23.0186 21.8986 23.4462L24.2195 25.7661C24.6461 26.1927 25.3395 26.1927 25.7661 25.7661C26.1927 25.3395 26.1927 24.6461 25.7661 24.2195ZM32.4062 18.1875V21.4688C32.4062 22.0725 32.8962 22.5625 33.5 22.5625C34.1038 22.5625 34.5938 22.0725 34.5938 21.4688V18.1875C34.5938 17.5838 34.1038 17.0938 33.5 17.0938C32.8962 17.0938 32.4062 17.5838 32.4062 18.1875ZM43.5537 21.8986L41.2339 24.2195C40.8073 24.6461 40.8073 25.3395 41.2339 25.7661C41.6605 26.1927 42.3539 26.1927 42.7805 25.7661L45.1014 23.4462C45.528 23.0186 45.528 22.3263 45.1014 21.8986C44.6737 21.472 43.9814 21.472 43.5537 21.8986ZM48.8125 32.4062H45.5312C44.9275 32.4062 44.4375 32.8962 44.4375 33.5C44.4375 34.1038 44.9275 34.5938 45.5312 34.5938H48.8125C49.4162 34.5938 49.9062 34.1038 49.9062 33.5C49.9062 32.8962 49.4162 32.4062 48.8125 32.4062ZM45.1014 43.5537L42.7805 41.2339C42.3539 40.8073 41.6605 40.8073 41.2339 41.2339C40.8073 41.6605 40.8073 42.3539 41.2339 42.7805L43.5537 45.1014C43.9814 45.528 44.6737 45.528 45.1014 45.1014C45.528 44.6737 45.528 43.9814 45.1014 43.5537Z" fill="white" stroke="white" stroke-width="0.5"/>
</g>
<defs>
<filter id="filter0_d_4_428" x="0" y="0" width="67" height="67" filterUnits="userSpaceOnUse" color-interpolation-filters="sRGB">
<feFlood flood-opacity="0" result="BackgroundImageFix"/>
<feColorMatrix in="SourceAlpha" type="matrix" values="0 0 0 0 0 0 0 0 0 0 0 0 0 0 0 0 0 0 127 0" result="hardAlpha"/>
<feOffset/>
<feGaussianBlur stdDeviation="2"/>
<feComposite in2="hardAlpha" operator="out"/>
<feColorMatrix type="matrix" values="0 0 0 0 0 0 0 0 0 0 0 0 0 0 0 0 0 0 0.15 0"/>
<feBlend mode="normal" in2="BackgroundImageFix" result="effect1_dropShadow_4_428"/>
<feBlend mode="normal" in="SourceGraphic" in2="effect1_dropShadow_4_428" result="shape"/>
</filter>
</defs>
</svg>
