<svg width="50" height="50" viewBox="0 0 50 50" fill="none" xmlns="http://www.w3.org/2000/svg">
<g clip-path="url(#clip0_17_70)">
<path fill-rule="evenodd" clip-rule="evenodd" d="M45.6868 46.5006C45.6868 46.9116 45.3532 47.2493 44.9381 47.2493H4.85433C4.44336 47.2493 4.10563 46.9156 4.10563 46.5006V23.7711C3.26741 24.0926 2.49023 24.0966 1.83919 23.881C1.33056 23.7101 0.903317 23.4049 0.590003 23.0061C0.276689 22.6114 0.0773078 22.1272 0.0162726 21.5983C-0.0732456 20.7722 0.174964 19.8364 0.874834 18.9615C0.911455 18.9168 0.952145 18.8761 0.996904 18.8395L24.4344 2.94184C24.6989 2.6977 25.1058 2.67329 25.3988 2.90115L48.8769 18.7662C48.9095 18.7906 48.938 18.8191 48.9665 18.8476C49.9105 19.8649 50.1465 20.992 49.9186 21.9482C49.8047 22.4161 49.5809 22.8434 49.2716 23.1892C48.9624 23.5392 48.5677 23.8077 48.116 23.9705C47.3999 24.2309 46.5535 24.2187 45.6909 23.8118C45.6868 30.1595 45.6868 40.157 45.6868 46.5006ZM18.4448 17.5374H31.5511V26.3631H18.4448V17.5374ZM22.9004 19.934C23.2788 19.934 23.5881 20.2433 23.5881 20.6217C23.5881 21.0001 23.2788 21.3094 22.9004 21.3094C22.522 21.3094 22.2127 21.0001 22.2127 20.6217C22.2127 20.2392 22.5179 19.934 22.9004 19.934ZM25.7935 22.8841L27.3397 20.5078L28.8005 24.2024H21.639V23.7426L22.2127 23.7141L22.7865 22.3103L23.2422 23.3154H24.1007L24.8454 21.3948L25.7935 22.8841ZM19.2342 18.4448H30.7699V25.4557H19.2342V18.4448ZM24.7925 33.1339C24.8088 33.138 24.8291 33.1339 24.8454 33.1176C25.7243 32.43 27.0142 32.7189 27.6042 34.1593H27.592C26.4282 35.1481 25.5941 36.2223 25.293 37.4226H23.6084L24.7925 33.1339ZM30.66 35.8805C30.8024 37.1012 29.5492 38.1551 28.4464 37.8214C28.2918 38.09 28.1738 38.4277 28.0802 38.8346C27.8727 39.7827 27.9338 39.4938 28.0233 40.4134C28.1453 41.6381 28.0151 42.4723 27.2257 42.8304V43.3024H11.2834V42.8304C10.6689 42.6106 10.4045 42.0084 10.498 41.0196C10.7015 39.156 10.5754 38.5742 10.1074 37.8702C9.28548 37.8987 8.6914 37.7034 8.32112 37.2884C7.56429 36.4461 7.79622 35.2132 8.74023 34.6232C8.93554 34.5011 9.16341 34.4075 9.42789 34.3505C11.4543 33.9233 12.5732 35.9985 13.1103 37.6342L18.4285 37.7766C18.7907 37.8255 19.0226 37.9882 19.1772 38.208C19.3197 37.9923 19.5272 37.8295 19.8446 37.7563C21.5006 37.6831 22.6847 37.9028 23.8932 37.9028H25.3011C25.59 37.9028 25.7406 37.7766 25.7894 37.5447C26.1475 36.4542 27.417 34.2651 28.7476 34.3058C29.5654 34.3343 30.4565 34.8958 30.66 35.8805ZM11.0433 34.0291C11.5804 32.8328 12.4186 32.5358 13.562 32.9345L14.7868 37.1459H13.4644C12.8499 35.8927 12.443 34.6191 11.0433 34.0291ZM14.0788 32.9671C14.095 32.9589 14.1073 32.9467 14.1154 32.9264C14.5671 31.8847 15.8122 31.5917 16.8294 32.0393C16.8294 32.0353 16.8335 32.0353 16.8335 32.0353L17.1102 37.3982H15.3483L14.0788 32.9671ZM17.3747 31.9254C17.7043 30.5541 20.8293 30.8349 21.1182 31.7789C21.1589 31.7748 20.7926 36.8408 20.7682 37.4023H20.3044C19.5719 37.4023 18.925 37.4023 18.2007 37.4023H17.6147L17.3869 31.9254H17.3747ZM21.5251 32.1573C21.5332 32.1573 21.5454 32.1533 21.5576 32.1492C22.6888 31.547 24.2635 31.9864 24.4141 32.7718L24.3367 32.8002L23.0957 37.3982H21.2606L21.5251 32.1573ZM37.7726 34.4441V41.9108H39.2782C39.5101 41.9108 39.6973 42.1834 39.6973 42.4153C39.6973 42.6472 39.5101 42.9199 39.2782 42.9199H35.1074C34.8755 42.9199 34.6883 42.6472 34.6883 42.4153C34.6883 42.1834 34.8755 41.9108 35.1074 41.9108H36.613V34.4441H37.7726ZM35.0301 28.7882H39.3433L40.6087 33.7809H33.7728L35.0301 28.7882ZM43.807 45.3653V22.937C43.807 22.8881 43.811 22.8393 43.8192 22.7945L25.0732 10.3067L5.96517 22.7986C5.98144 22.8596 5.98958 22.9248 5.98958 22.9899V45.3653C18.5954 45.3653 31.2012 45.3653 43.807 45.3653Z" fill="black"/>
</g>
<defs>
<clipPath id="clip0_17_70">
<rect width="50" height="50" fill="white"/>
</clipPath>
</defs>
</svg>
