<?xml version="1.0" encoding="UTF-8"?>
<svg id="Layer_1" data-name="Layer 1" xmlns="http://www.w3.org/2000/svg" viewBox="0 0 787.4 787.4">
  <path fill="#0191b5" stroke-width="0" d="m54.86,383.01c21.82-19.05,43.71-38.02,65.45-57.16,88.18-77.62,176.32-155.29,264.48-232.94,1.74-1.54,3.55-3,5.57-4.71l323.93,293.46c-7.27,13.32-22.27,19.7-38.14,16.19-14.13-3.12-26.52-9.87-37.24-19.47-80.95-72.51-161.83-145.1-242.73-217.65-1.75-1.57-3.55-3.09-5.96-5.18-2.75,2.29-5.5,4.55-8.22,6.85-86.78,73.41-173.55,146.83-260.36,220.2-3.78,3.19-7.74,6.17-11.92,8.81-22.09,13.91-37.34,11.84-54.92-7.16l.06-1.22Z"/>
  <path fill="#004366" stroke-width="0" d="m324.7,672.68c-3.2,0-5.51,0-7.82,0-51.11.06-102.22.12-153.33.17-14.78.01-18.82-3.96-18.83-18.62-.02-82.03-.05-164.07.15-246.1,0-2.94,1.53-6.83,3.71-8.66,78.68-66.23,157.53-132.27,236.35-198.32.98-.82,2.03-1.57,3.39-2.61,13.34,11.84,26.66,23.65,39.96,35.47,61.61,54.8,123.2,109.62,184.89,164.33,3.34,2.96,4.75,5.91,4.74,10.42-.13,80.31-.09,160.63-.14,240.94,0,3.53-.37,7.14-1.26,10.53-1.77,6.7-7.92,11.33-14.85,11.53-12.37.36-24.76.24-37.15.24-39.51.02-79.03,0-118.54,0-2.54,0-5.07,0-8.43,0,0-3.02,0-5.52,0-8.02.05-41.66.11-83.32.14-124.98.01-16.37-6.36-24.21-22.77-24.78-23.59-.83-47.23-.72-70.83-.14-13.38.33-18.94,7.39-18.99,21.54-.17,42.95-.26,85.9-.39,128.85,0,2.51,0,5.01,0,8.2Z"/>
  <path fill="#004366" stroke-width="0" d="m636.42,288.19c-14.85-12.56-28.89-24.45-42.94-36.34-.65-.55-1.31-1.11-1.95-1.68-.07-.06-.15-.13-.22-.19-12.24-10.67-19.34-25.99-19.36-42.23,0-.09,0-.17,0-.26-.06-17.31-.02-34.62-.02-52.27h64.49v132.97Z"/>
</svg>