<svg width="67" height="67" viewBox="0 0 67 67" fill="none" xmlns="http://www.w3.org/2000/svg">
<g filter="url(#filter0_d_4_419)">
<rect x="4" y="4" width="59" height="59" rx="15" fill="#E76F51" shape-rendering="crispEdges"/>
<path d="M33.5 49.2646C32.8929 49.2668 32.2919 49.1426 31.7354 48.9C27.8963 47.2084 24.6299 44.4402 22.3315 40.9305C20.0331 37.4209 18.8014 33.3202 18.7854 29.125V25.4062C18.7881 24.48 19.0846 23.5786 19.6324 22.8317C20.1801 22.0848 20.9508 21.5309 21.8333 21.25L32.1729 17.8375C33.0632 17.5438 34.0243 17.5438 34.9146 17.8375L45.1667 21.25C46.0411 21.5385 46.8022 22.0956 47.3416 22.8418C47.881 23.5881 48.1712 24.4855 48.1708 25.4062V29.125C48.1689 33.3327 46.9438 37.449 44.6446 40.9729C42.3454 44.4968 39.0713 47.2763 35.2208 48.9729C34.6726 49.1847 34.0874 49.2839 33.5 49.2646ZM22.7083 24.0208C22.4038 24.1197 22.1402 24.3161 21.9583 24.5797C21.7765 24.8432 21.6864 25.1593 21.7021 25.4792V29.125C21.7185 32.7551 22.7864 36.3026 24.7767 39.3385C26.7669 42.3744 29.5943 44.7685 32.9167 46.2313C33.1007 46.3116 33.2992 46.353 33.5 46.353C33.7008 46.353 33.8993 46.3116 34.0833 46.2313C37.4057 44.7685 40.2331 42.3744 42.2233 39.3385C44.2136 36.3026 45.2815 32.7551 45.2979 29.125V25.4062C45.3136 25.0864 45.2235 24.7703 45.0417 24.5067C44.8598 24.2432 44.5962 24.0468 44.2917 23.9479L33.9521 20.6083C33.6594 20.5061 33.3406 20.5061 33.0479 20.6083L22.7083 24.0208Z" fill="white"/>
<path d="M31.1375 35.4395L29.125 33.3687C28.8534 33.0955 28.7009 32.7258 28.7009 32.3406C28.7009 31.9553 28.8534 31.5857 29.125 31.3125C29.2606 31.1758 29.4218 31.0673 29.5996 30.9932C29.7773 30.9192 29.9679 30.8811 30.1604 30.8811C30.3529 30.8811 30.5435 30.9192 30.7212 30.9932C30.899 31.0673 31.0602 31.1758 31.1958 31.3125L33.2521 33.3687L37.3792 29.2562C37.5147 29.1195 37.676 29.011 37.8537 28.937C38.0314 28.8629 38.222 28.8248 38.4146 28.8248C38.6071 28.8248 38.7977 28.8629 38.9754 28.937C39.1531 29.011 39.3144 29.1195 39.45 29.2562C39.7216 29.5294 39.8741 29.8991 39.8741 30.2843C39.8741 30.6696 39.7216 31.0392 39.45 31.3125L35.3229 35.4395C35.051 35.7196 34.7257 35.9422 34.3663 36.0942C34.0068 36.2462 33.6205 36.3246 33.2302 36.3246C32.8399 36.3246 32.4536 36.2462 32.0941 36.0942C31.7346 35.9422 31.4093 35.7196 31.1375 35.4395Z" fill="white"/>
</g>
<defs>
<filter id="filter0_d_4_419" x="0" y="0" width="67" height="67" filterUnits="userSpaceOnUse" color-interpolation-filters="sRGB">
<feFlood flood-opacity="0" result="BackgroundImageFix"/>
<feColorMatrix in="SourceAlpha" type="matrix" values="0 0 0 0 0 0 0 0 0 0 0 0 0 0 0 0 0 0 127 0" result="hardAlpha"/>
<feOffset/>
<feGaussianBlur stdDeviation="2"/>
<feComposite in2="hardAlpha" operator="out"/>
<feColorMatrix type="matrix" values="0 0 0 0 0 0 0 0 0 0 0 0 0 0 0 0 0 0 0.15 0"/>
<feBlend mode="normal" in2="BackgroundImageFix" result="effect1_dropShadow_4_419"/>
<feBlend mode="normal" in="SourceGraphic" in2="effect1_dropShadow_4_419" result="shape"/>
</filter>
</defs>
</svg>
