<svg width="50" height="50" viewBox="0 0 50 50" fill="none" xmlns="http://www.w3.org/2000/svg">
<path d="M41.2358 12.6336V5.51622C41.2358 4.06243 39.9009 2.8833 38.2552 2.8833H6.31359C4.66779 2.8833 3.33331 4.06243 3.33331 5.51622V12.6336C3.33331 14.0874 4.66788 15.2665 6.31359 15.2665H38.2552C39.9009 15.2665 41.2358 14.0875 41.2358 12.6336Z" fill="black"/>
<path d="M18.5787 43.6241C18.5787 45.5165 20.3154 47.05 22.457 47.05H22.7159C24.8575 47.05 26.5939 45.5165 26.5939 43.6241V31.2869H18.5787V43.6241Z" fill="black"/>
<path d="M43.3437 7.9502V12.0901V14.8448C43.3437 15.6229 42.8068 16.3251 41.9875 16.616L41.9413 16.6322L24.3328 24.1086L24.3346 24.1119C22.4303 24.8265 21.1842 26.4733 21.1842 28.3074V29.7385H24.1883V28.3074C24.1883 27.5274 24.7247 26.8264 25.5437 26.5356L25.5906 26.5187L43.1984 19.0429L43.1962 19.0397C45.1025 18.3251 46.3478 16.6782 46.3478 14.8448V12.0901C46.347 10.252 45.1155 8.67325 43.3437 7.9502Z" fill="black"/>
</svg>
