<svg width="67" height="67" viewBox="0 0 67 67" fill="none" xmlns="http://www.w3.org/2000/svg">
<g filter="url(#filter0_d_4_467)">
<rect x="4" y="4" width="59" height="59" rx="15" fill="#E76F51" shape-rendering="crispEdges"/>
<path d="M33.5 18.9166C30.4058 18.9166 27.4384 20.1458 25.2505 22.3337C23.0625 24.5216 21.8334 27.4891 21.8334 30.5833C21.8334 38.4583 32.1146 47.3541 32.5521 47.7333C32.8163 47.9592 33.1524 48.0834 33.5 48.0834C33.8476 48.0834 34.1838 47.9592 34.448 47.7333C34.9584 47.3541 45.1667 38.4583 45.1667 30.5833C45.1667 27.4891 43.9375 24.5216 41.7496 22.3337C39.5617 20.1458 36.5942 18.9166 33.5 18.9166ZM33.5 44.6562C30.3938 41.7395 24.75 35.4541 24.75 30.5833C24.75 28.2626 25.6719 26.0371 27.3129 24.3961C28.9538 22.7552 31.1794 21.8333 33.5 21.8333C35.8207 21.8333 38.0463 22.7552 39.6872 24.3961C41.3282 26.0371 42.25 28.2626 42.25 30.5833C42.25 35.4541 36.6063 41.7541 33.5 44.6562ZM33.5 24.75C32.3463 24.75 31.2185 25.0921 30.2592 25.7331C29.2999 26.374 28.5523 27.2851 28.1107 28.351C27.6692 29.4169 27.5537 30.5898 27.7788 31.7213C28.0039 32.8529 28.5594 33.8923 29.3753 34.7081C30.1911 35.5239 31.2305 36.0795 32.362 36.3045C33.4936 36.5296 34.6665 36.4141 35.7324 35.9726C36.7983 35.5311 37.7093 34.7834 38.3503 33.8241C38.9913 32.8648 39.3334 31.737 39.3334 30.5833C39.3334 29.0362 38.7188 27.5525 37.6248 26.4585C36.5309 25.3645 35.0471 24.75 33.5 24.75ZM33.5 33.5C32.9232 33.5 32.3593 33.3289 31.8796 33.0084C31.4 32.6879 31.0261 32.2324 30.8054 31.6995C30.5846 31.1665 30.5269 30.5801 30.6394 30.0143C30.752 29.4485 31.0297 28.9288 31.4376 28.5209C31.8455 28.113 32.3652 27.8352 32.931 27.7227C33.4968 27.6101 34.0832 27.6679 34.6162 27.8886C35.1492 28.1094 35.6047 28.4832 35.9252 28.9629C36.2456 29.4425 36.4167 30.0064 36.4167 30.5833C36.4167 31.3568 36.1094 32.0987 35.5624 32.6457C35.0155 33.1927 34.2736 33.5 33.5 33.5Z" fill="white"/>
</g>
<defs>
<filter id="filter0_d_4_467" x="0" y="0" width="67" height="67" filterUnits="userSpaceOnUse" color-interpolation-filters="sRGB">
<feFlood flood-opacity="0" result="BackgroundImageFix"/>
<feColorMatrix in="SourceAlpha" type="matrix" values="0 0 0 0 0 0 0 0 0 0 0 0 0 0 0 0 0 0 127 0" result="hardAlpha"/>
<feOffset/>
<feGaussianBlur stdDeviation="2"/>
<feComposite in2="hardAlpha" operator="out"/>
<feColorMatrix type="matrix" values="0 0 0 0 0 0 0 0 0 0 0 0 0 0 0 0 0 0 0.15 0"/>
<feBlend mode="normal" in2="BackgroundImageFix" result="effect1_dropShadow_4_467"/>
<feBlend mode="normal" in="SourceGraphic" in2="effect1_dropShadow_4_467" result="shape"/>
</filter>
</defs>
</svg>
