<svg width="67" height="67" viewBox="0 0 67 67" fill="none" xmlns="http://www.w3.org/2000/svg">
<g filter="url(#filter0_d_4_442)">
<rect x="4" y="4" width="59" height="59" rx="15" fill="#E76F51" shape-rendering="crispEdges"/>
<path d="M40.0625 23.3281V21.4688C40.0625 20.5985 39.7168 19.7639 39.1014 19.1486C38.4861 18.5332 37.6515 18.1875 36.7813 18.1875H34.5938C33.7235 18.1875 32.8889 18.5332 32.2736 19.1486C31.6582 19.7639 31.3125 20.5985 31.3125 21.4688V23.3281C28.5924 24.2848 26.2631 26.1106 24.6844 28.5234C24.6054 28.6441 24.5509 28.7791 24.5241 28.9208C24.4973 29.0625 24.4987 29.2081 24.5281 29.3493C24.5876 29.6344 24.7579 29.8842 25.0016 30.0437C25.2452 30.2033 25.5423 30.2595 25.8274 30.2C26.1125 30.1405 26.3623 29.9702 26.5219 29.7266C27.6642 27.9702 29.287 26.5789 31.1972 25.7181C33.1074 24.8574 35.2247 24.5634 37.2971 24.8711C39.3696 25.1788 41.3101 26.0753 42.8877 27.454C44.4654 28.8327 45.6139 30.6355 46.1966 32.648C46.7794 34.6605 46.7718 36.7981 46.1748 38.8064C45.5778 40.8147 44.4165 42.6094 42.8291 43.9768C41.2417 45.3442 39.2949 46.227 37.2203 46.52C35.1457 46.813 33.0306 46.504 31.1266 45.6297C30.8626 45.5093 30.5616 45.4987 30.2898 45.6002C30.018 45.7018 29.7977 45.9071 29.6773 46.1711C29.557 46.4351 29.5464 46.736 29.6479 47.0078C29.7494 47.2796 29.9548 47.4999 30.2188 47.6203C31.8331 48.3795 33.5852 48.8017 35.3681 48.861C37.1511 48.9203 38.9274 48.6155 40.5886 47.9653C42.2498 47.3151 43.761 46.333 45.0299 45.0791C46.2988 43.8252 47.2988 42.3258 47.9688 40.6725C48.6388 39.0191 48.9646 37.2466 48.9266 35.4631C48.8885 33.6795 48.4872 31.9225 47.7473 30.2993C47.0073 28.676 45.9443 27.2207 44.623 26.0221C43.3017 24.8235 41.7499 23.9069 40.0625 23.3281Z" fill="white"/>
<path d="M42.0094 30.6343C41.8289 30.409 41.5666 30.2641 41.2798 30.2313C40.9929 30.1985 40.7048 30.2805 40.4781 30.4593L37.4047 32.9093C36.8927 32.5797 36.2964 32.405 35.6875 32.4062C35.0385 32.4062 34.4041 32.5987 33.8645 32.9592C33.3249 33.3198 32.9044 33.8322 32.656 34.4318C32.4077 35.0314 32.3427 35.6911 32.4693 36.3276C32.5959 36.9641 32.9084 37.5488 33.3673 38.0077C33.8262 38.4666 34.4108 38.7791 35.0473 38.9057C35.6838 39.0323 36.3436 38.9673 36.9432 38.7189C37.5427 38.4706 38.0552 38.05 38.4157 37.5104C38.7763 36.9708 38.9687 36.3364 38.9687 35.6875C38.9673 35.3142 38.9007 34.9441 38.7719 34.5937L41.8344 32.1437C42.0534 31.9638 42.1941 31.7059 42.2268 31.4244C42.2594 31.1428 42.1815 30.8596 42.0094 30.6343ZM28.0312 34.5937H21.4687C21.1787 34.5937 20.9005 34.4785 20.6953 34.2734C20.4902 34.0682 20.375 33.79 20.375 33.5C20.375 33.2099 20.4902 32.9317 20.6953 32.7266C20.9005 32.5214 21.1787 32.4062 21.4687 32.4062H28.0312C28.3213 32.4062 28.5995 32.5214 28.8046 32.7266C29.0098 32.9317 29.125 33.2099 29.125 33.5C29.125 33.79 29.0098 34.0682 28.8046 34.2734C28.5995 34.4785 28.3213 34.5937 28.0312 34.5937ZM28.0312 38.9687H19.2812C18.9912 38.9687 18.713 38.8535 18.5078 38.6484C18.3027 38.4432 18.1875 38.165 18.1875 37.875C18.1875 37.5849 18.3027 37.3067 18.5078 37.1016C18.713 36.8964 18.9912 36.7812 19.2812 36.7812H28.0312C28.3213 36.7812 28.5995 36.8964 28.8046 37.1016C29.0098 37.3067 29.125 37.5849 29.125 37.875C29.125 38.165 29.0098 38.4432 28.8046 38.6484C28.5995 38.8535 28.3213 38.9687 28.0312 38.9687ZM28.0312 43.3437H21.4687C21.1787 43.3437 20.9005 43.2285 20.6953 43.0234C20.4902 42.8182 20.375 42.54 20.375 42.25C20.375 41.9599 20.4902 41.6817 20.6953 41.4766C20.9005 41.2714 21.1787 41.1562 21.4687 41.1562H28.0312C28.3213 41.1562 28.5995 41.2714 28.8046 41.4766C29.0098 41.6817 29.125 41.9599 29.125 42.25C29.125 42.54 29.0098 42.8182 28.8046 43.0234C28.5995 43.2285 28.3213 43.3437 28.0312 43.3437Z" fill="white"/>
</g>
<defs>
<filter id="filter0_d_4_442" x="0" y="0" width="67" height="67" filterUnits="userSpaceOnUse" color-interpolation-filters="sRGB">
<feFlood flood-opacity="0" result="BackgroundImageFix"/>
<feColorMatrix in="SourceAlpha" type="matrix" values="0 0 0 0 0 0 0 0 0 0 0 0 0 0 0 0 0 0 127 0" result="hardAlpha"/>
<feOffset/>
<feGaussianBlur stdDeviation="2"/>
<feComposite in2="hardAlpha" operator="out"/>
<feColorMatrix type="matrix" values="0 0 0 0 0 0 0 0 0 0 0 0 0 0 0 0 0 0 0.15 0"/>
<feBlend mode="normal" in2="BackgroundImageFix" result="effect1_dropShadow_4_442"/>
<feBlend mode="normal" in="SourceGraphic" in2="effect1_dropShadow_4_442" result="shape"/>
</filter>
</defs>
</svg>
