<svg width="67" height="67" viewBox="0 0 67 67" fill="none" xmlns="http://www.w3.org/2000/svg">
<g filter="url(#filter0_d_4_455)">
<rect x="4" y="4" width="59" height="59" rx="15" fill="#E76F51" shape-rendering="crispEdges"/>
<path d="M45.2108 27.3455L45.1233 27.258L37.5545 19.6892L37.467 19.6017C37.262 19.3966 36.9838 19.2813 36.6938 19.2812H22.5625C22.2724 19.2812 21.9942 19.3965 21.7891 19.6016C21.584 19.8067 21.4688 20.0849 21.4688 20.375V46.625C21.4688 46.9151 21.584 47.1933 21.7891 47.3984C21.9942 47.6035 22.2724 47.7188 22.5625 47.7188H44.4375C44.7276 47.7188 45.0058 47.6035 45.2109 47.3984C45.416 47.1933 45.5312 46.9151 45.5312 46.625V28.1187C45.5312 27.8287 45.4159 27.5505 45.2108 27.3455ZM37.875 23.1028L41.7097 26.9375H37.875V23.1028ZM43.3438 45.5312H23.6562V21.4688H35.6875V28.0312C35.6875 28.3213 35.8027 28.5995 36.0079 28.8046C36.213 29.0098 36.4912 29.125 36.7812 29.125H43.3438V45.5312Z" fill="white"/>
<path d="M25.8438 33.5C25.8438 33.7901 25.959 34.0683 26.1641 34.2734C26.3692 34.4785 26.6474 34.5937 26.9375 34.5937H40.0625C40.3526 34.5937 40.6308 34.4785 40.8359 34.2734C41.041 34.0683 41.1562 33.7901 41.1562 33.5C41.1562 33.2099 41.041 32.9317 40.8359 32.7266C40.6308 32.5215 40.3526 32.4062 40.0625 32.4062H26.9375C26.6474 32.4062 26.3692 32.5215 26.1641 32.7266C25.959 32.9317 25.8438 33.2099 25.8438 33.5ZM40.0625 36.7812H26.9375C26.6474 36.7812 26.3692 36.8965 26.1641 37.1016C25.959 37.3067 25.8438 37.5849 25.8438 37.875C25.8438 38.1651 25.959 38.4433 26.1641 38.6484C26.3692 38.8535 26.6474 38.9687 26.9375 38.9687H40.0625C40.3526 38.9687 40.6308 38.8535 40.8359 38.6484C41.041 38.4433 41.1562 38.1651 41.1562 37.875C41.1562 37.5849 41.041 37.3067 40.8359 37.1016C40.6308 36.8965 40.3526 36.7812 40.0625 36.7812ZM40.0625 41.1562H26.9375C26.6474 41.1562 26.3692 41.2715 26.1641 41.4766C25.959 41.6817 25.8438 41.9599 25.8438 42.25C25.8438 42.5401 25.959 42.8183 26.1641 43.0234C26.3692 43.2285 26.6474 43.3437 26.9375 43.3437H40.0625C40.3526 43.3437 40.6308 43.2285 40.8359 43.0234C41.041 42.8183 41.1562 42.5401 41.1562 42.25C41.1562 41.9599 41.041 41.6817 40.8359 41.4766C40.6308 41.2715 40.3526 41.1562 40.0625 41.1562ZM30.1881 27.9405H28.25C28.105 27.9405 27.9659 27.9981 27.8633 28.1006C27.7607 28.2032 27.7031 28.3423 27.7031 28.4873C27.7031 28.6324 27.7607 28.7715 27.8633 28.874C27.9659 28.9766 28.105 29.0342 28.25 29.0342H29.1611V29.4586C29.1611 29.6036 29.2187 29.7427 29.3213 29.8453C29.4238 29.9478 29.5629 30.0055 29.708 30.0055C29.853 30.0055 29.9921 29.9478 30.0947 29.8453C30.1972 29.7427 30.2548 29.6036 30.2548 29.4586V29.0276C30.6482 29.007 31.0181 28.8342 31.2864 28.5458C31.5546 28.2573 31.7001 27.8759 31.6922 27.4821C31.6842 27.0882 31.5234 26.713 31.2437 26.4356C30.9641 26.1582 30.5875 26.0005 30.1936 25.9958H29.2213C29.1084 25.9958 29.0002 25.9509 28.9204 25.8712C28.8406 25.7914 28.7958 25.6831 28.7958 25.5703C28.7958 25.4575 28.8406 25.3492 28.9204 25.2695C29.0002 25.1897 29.1084 25.1448 29.2213 25.1448H31.1659C31.311 25.1448 31.4501 25.0872 31.5526 24.9847C31.6552 24.8821 31.7128 24.743 31.7128 24.598C31.7128 24.4529 31.6552 24.3138 31.5526 24.2113C31.4501 24.1087 31.311 24.0511 31.1659 24.0511H30.2548V23.6267C30.2548 23.4817 30.1972 23.3426 30.0947 23.24C29.9921 23.1375 29.853 23.0798 29.708 23.0798C29.5629 23.0798 29.4238 23.1375 29.3213 23.24C29.2187 23.3426 29.1611 23.4817 29.1611 23.6267V24.0576C28.7678 24.0782 28.3979 24.2509 28.1296 24.5392C27.8614 24.8276 27.7157 25.2089 27.7235 25.6027C27.7314 25.9965 27.892 26.3718 28.1715 26.6492C28.451 26.9267 28.8274 27.0846 29.2213 27.0895H30.1936C30.3064 27.0895 30.4147 27.1343 30.4944 27.2141C30.5742 27.2939 30.6191 27.4021 30.6191 27.515C30.6191 27.6278 30.5742 27.7361 30.4944 27.8158C30.4147 27.8956 30.3064 27.9405 30.1936 27.9405H30.1881Z" fill="white"/>
</g>
<defs>
<filter id="filter0_d_4_455" x="0" y="0" width="67" height="67" filterUnits="userSpaceOnUse" color-interpolation-filters="sRGB">
<feFlood flood-opacity="0" result="BackgroundImageFix"/>
<feColorMatrix in="SourceAlpha" type="matrix" values="0 0 0 0 0 0 0 0 0 0 0 0 0 0 0 0 0 0 127 0" result="hardAlpha"/>
<feOffset/>
<feGaussianBlur stdDeviation="2"/>
<feComposite in2="hardAlpha" operator="out"/>
<feColorMatrix type="matrix" values="0 0 0 0 0 0 0 0 0 0 0 0 0 0 0 0 0 0 0.15 0"/>
<feBlend mode="normal" in2="BackgroundImageFix" result="effect1_dropShadow_4_455"/>
<feBlend mode="normal" in="SourceGraphic" in2="effect1_dropShadow_4_455" result="shape"/>
</filter>
</defs>
</svg>
