<svg width="50" height="50" viewBox="0 0 50 50" fill="none" xmlns="http://www.w3.org/2000/svg">
<g clip-path="url(#clip0_17_90)">
<path d="M49.9708 41.7906L48.958 35.7144H46.7855H44.6131H5.38665H3.2142H1.04193L0.0292412 41.7906C-0.0744695 42.4119 0.100628 43.0474 0.507854 43.5279C0.915177 44.0088 1.51303 44.2857 2.14281 44.2857H47.857C48.487 44.2857 49.085 44.0088 49.4919 43.5279C49.8993 43.0474 50.0744 42.4119 49.9708 41.7906Z" fill="black"/>
<path d="M47.5294 27.1428H45.357H43.1846H6.8152H4.64274H2.47048L1.75623 31.4285H3.92849H6.10094H43.8988H46.0713H48.2437L47.5294 27.1428Z" fill="black"/>
<path d="M45.6852 16.0762C45.513 15.0429 44.6189 14.2857 43.5714 14.2857H40V9.87548C40.8317 9.58105 41.4286 8.78974 41.4286 7.85722C41.4286 6.67383 40.4693 5.71436 39.2857 5.71436H37.8571H29.2857H27.8571C26.6738 5.71436 25.7143 6.67383 25.7143 7.85722C25.7143 8.78974 26.3112 9.58105 27.1429 9.87548V14.2857H6.42856C5.3811 14.2857 4.48716 15.043 4.31499 16.0762L3.18481 22.8571H5.35708H7.52953H42.4703H44.6427H46.8152L45.6852 16.0762Z" fill="black"/>
</g>
<defs>
<clipPath id="clip0_17_90">
<rect width="50" height="50" fill="white"/>
</clipPath>
</defs>
</svg>
