<svg width="67" height="67" viewBox="0 0 67 67" fill="none" xmlns="http://www.w3.org/2000/svg">
<g filter="url(#filter0_d_4_435)">
<rect x="4" y="4" width="59" height="59" rx="15" fill="#E76F51" shape-rendering="crispEdges"/>
<g clip-path="url(#clip0_4_435)">
<path d="M31.0565 23.8595C30.9947 23.8616 30.9333 23.8689 30.8728 23.8814C22.9234 25.1939 17.3715 32.1962 18.3799 39.8174C18.3986 39.9599 18.4452 40.0972 18.5169 40.2217C18.5887 40.3462 18.6843 40.4554 18.7983 40.5429C18.9122 40.6305 19.0423 40.6947 19.1811 40.732C19.3199 40.7693 19.4646 40.779 19.6071 40.7603C19.7496 40.7416 19.887 40.6951 20.0115 40.6233C20.136 40.5515 20.2451 40.4558 20.3327 40.3419C20.4202 40.2279 20.4845 40.098 20.5218 39.9592C20.559 39.8204 20.5686 39.6755 20.5499 39.533C19.7012 33.1149 24.3387 27.1782 31.2249 26.0385C31.497 25.9959 31.743 25.8523 31.9139 25.6363C32.0847 25.4203 32.1678 25.1477 32.1465 24.8732C32.1252 24.5986 32.0012 24.3422 31.7991 24.1551C31.5971 23.968 31.3319 23.8642 31.0565 23.8641V23.8595ZM35.9346 23.8595C35.656 23.8579 35.3872 23.9629 35.1831 24.1527C34.9791 24.3425 34.8552 24.6028 34.8368 24.8809C34.8184 25.159 34.9068 25.4338 35.084 25.6489C35.2612 25.864 35.5138 26.0033 35.7903 26.0385C42.6699 27.1847 47.3009 33.1193 46.4499 39.5309C46.4119 39.8187 46.4898 40.1097 46.6664 40.34C46.843 40.5703 47.1039 40.7212 47.3917 40.7592C47.6794 40.7972 47.9705 40.7193 48.2008 40.5427C48.4312 40.3661 48.5819 40.1052 48.6199 39.8174C49.6306 32.2027 44.094 25.2048 36.1512 23.8814C36.0799 23.8669 36.0074 23.8596 35.9346 23.8595Z" fill="white"/>
<path d="M19.2944 38.9423C17.4875 38.9423 16 40.4298 16 42.2344C16 44.0413 17.4875 45.5288 19.2944 45.5288H47.7056C49.5125 45.5288 51 44.0413 51 42.2344C51 40.4298 49.5125 38.9423 47.7056 38.9423H19.2944ZM19.2944 41.1298H47.7056C48.34 41.1298 48.8125 41.6044 48.8125 42.2366C48.8158 42.3827 48.7894 42.5282 48.7349 42.6638C48.6804 42.7995 48.599 42.9226 48.4955 43.0259C48.392 43.1292 48.2687 43.2104 48.1329 43.2646C47.9971 43.3189 47.8518 43.3449 47.7056 43.3413H19.2944C19.148 43.3449 19.0025 43.3187 18.8666 43.2644C18.7307 43.21 18.6072 43.1286 18.5037 43.0251C18.4002 42.9216 18.3188 42.7981 18.2644 42.6622C18.2101 42.5263 18.1839 42.3808 18.1875 42.2344C18.1875 41.6044 18.6622 41.1298 19.2944 41.1298ZM25.8263 26.0426C25.6826 26.0449 25.5408 26.0755 25.409 26.1326C25.2772 26.1897 25.1579 26.2721 25.0579 26.3753C24.958 26.4785 24.8794 26.6004 24.8265 26.734C24.7737 26.8675 24.7477 27.0104 24.75 27.154V31.2991C24.75 31.5892 24.8652 31.8675 25.0704 32.0727C25.2755 32.2778 25.5537 32.3928 25.8438 32.3928C26.1338 32.3928 26.412 32.2778 26.6171 32.0727C26.8223 31.8675 26.9375 31.5892 26.9375 31.2991V27.154C26.9399 27.0074 26.9127 26.8618 26.8577 26.7259C26.8027 26.5901 26.721 26.4665 26.6173 26.3628C26.5136 26.2591 26.3902 26.1775 26.2543 26.1225C26.1184 26.0675 25.9728 26.0403 25.8263 26.0426ZM41.1388 26.0426C40.9951 26.0449 40.8533 26.0755 40.7215 26.1326C40.5897 26.1897 40.4704 26.2721 40.3704 26.3753C40.2705 26.4785 40.1919 26.6004 40.139 26.734C40.0862 26.8675 40.0602 27.0104 40.0625 27.154V31.2991C40.0625 31.5892 40.1777 31.8675 40.3829 32.0727C40.588 32.2778 40.8662 32.3928 41.1562 32.3928C41.4463 32.3928 41.7245 32.2778 41.9296 32.0727C42.1348 31.8675 42.25 31.5892 42.25 31.2991V27.154C42.2524 27.0074 42.2252 26.8618 42.1702 26.7259C42.1152 26.5901 42.0335 26.4665 41.9298 26.3628C41.8261 26.2591 41.7027 26.1775 41.5668 26.1225C41.4309 26.0675 41.2853 26.0403 41.1388 26.0426ZM19.8106 34.5913C19.5205 34.5913 19.2423 34.7066 19.0372 34.9117C18.8321 35.1168 18.7169 35.395 18.7169 35.685C18.7169 35.9751 18.8321 36.2535 19.0372 36.4586C19.2423 36.6637 19.5205 36.7788 19.8106 36.7788H29.8775C30.1676 36.7788 30.4458 36.6637 30.6509 36.4586C30.856 36.2535 30.9712 35.9751 30.9712 35.685C30.9712 35.395 30.856 35.1168 30.6509 34.9117C30.4458 34.7066 30.1676 34.5913 29.8775 34.5913H19.8106ZM36.8359 34.5913C36.5459 34.5913 36.2677 34.7066 36.0625 34.9117C35.8574 35.1168 35.7422 35.395 35.7422 35.685C35.7422 35.9751 35.8574 36.2535 36.0625 36.4586C36.2677 36.6637 36.5459 36.7788 36.8359 36.7788H47.1763C47.4663 36.7788 47.7445 36.6637 47.9496 36.4586C48.1548 36.2535 48.27 35.9751 48.27 35.685C48.27 35.395 48.1548 35.1168 47.9496 34.9117C47.7445 34.7066 47.4663 34.5913 47.1763 34.5913H36.8359Z" fill="white"/>
<path d="M33.5 32.4039C31.074 32.4039 29.0659 34.3661 29.0659 36.7789C29.0659 39.1939 31.074 41.1539 33.5 41.1539C35.9259 41.1539 37.934 39.1939 37.934 36.7789C37.934 34.3661 35.9259 32.4039 33.5 32.4039ZM33.5 34.5914C34.7644 34.5914 35.7465 35.5692 35.7465 36.7789C35.7465 37.9908 34.7622 38.9664 33.5 38.9664C33.2083 38.9722 32.9184 38.92 32.6471 38.8129C32.3758 38.7057 32.1284 38.5459 31.9194 38.3424C31.7104 38.1389 31.5439 37.8959 31.4296 37.6275C31.3153 37.3592 31.2554 37.0706 31.2534 36.7789C31.2534 35.5692 32.2378 34.5914 33.5 34.5914Z" fill="white"/>
<path d="M31.3125 21.4664C31.0224 21.4664 30.7442 21.5817 30.5391 21.7869C30.334 21.992 30.2188 22.2701 30.2188 22.5602V34.1562C30.2188 34.4463 30.334 34.7244 30.5391 34.9295C30.7442 35.1346 31.0224 35.2499 31.3125 35.2499C31.6026 35.2499 31.8808 35.1346 32.0859 34.9295C32.291 34.7244 32.4062 34.4463 32.4062 34.1562V23.6563H34.5938V34.1562C34.5938 34.4463 34.709 34.7244 34.9141 34.9295C35.1192 35.1346 35.3974 35.2499 35.6875 35.2499C35.9776 35.2499 36.2558 35.1346 36.4609 34.9295C36.666 34.7244 36.7812 34.4463 36.7812 34.1562V22.5626C36.7812 22.2725 36.666 21.9941 36.4609 21.789C36.2558 21.5839 35.9776 21.4688 35.6875 21.4688H31.3125V21.4664Z" fill="white"/>
</g>
</g>
<defs>
<filter id="filter0_d_4_435" x="0" y="0" width="67" height="67" filterUnits="userSpaceOnUse" color-interpolation-filters="sRGB">
<feFlood flood-opacity="0" result="BackgroundImageFix"/>
<feColorMatrix in="SourceAlpha" type="matrix" values="0 0 0 0 0 0 0 0 0 0 0 0 0 0 0 0 0 0 127 0" result="hardAlpha"/>
<feOffset/>
<feGaussianBlur stdDeviation="2"/>
<feComposite in2="hardAlpha" operator="out"/>
<feColorMatrix type="matrix" values="0 0 0 0 0 0 0 0 0 0 0 0 0 0 0 0 0 0 0.15 0"/>
<feBlend mode="normal" in2="BackgroundImageFix" result="effect1_dropShadow_4_435"/>
<feBlend mode="normal" in="SourceGraphic" in2="effect1_dropShadow_4_435" result="shape"/>
</filter>
<clipPath id="clip0_4_435">
<rect width="35" height="35" fill="white" transform="translate(16 16)"/>
</clipPath>
</defs>
</svg>
