<svg width="50" height="50" viewBox="0 0 50 50" fill="none" xmlns="http://www.w3.org/2000/svg">
<g clip-path="url(#clip0_17_100)">
<path d="M17.82 37.1509L22.9267 45.9297V37.5199C16.266 37.4788 10.8968 32.0502 10.8968 25.3805C10.8968 18.7109 16.304 13.2823 22.9647 13.2412V4.07056L17.9585 13.1375L8.47171 10.5956L11.0048 20.05L2.03511 25.2285L11.0431 30.4294L8.5789 39.6277L17.82 37.1509Z" fill="black"/>
<path d="M22.9646 35.734V15.0269C17.2886 15.0679 12.6824 19.6947 12.6824 25.3805C12.6825 31.0662 17.2888 35.693 22.9646 35.734Z" fill="black"/>
<path d="M29.2147 48.6606C29.2147 49.3999 29.8147 49.9999 30.554 49.9999H43.054C43.7933 49.9999 44.3933 49.3999 44.3933 48.6606V47.3213H29.2147V48.6606Z" fill="black"/>
<path d="M34.5718 4.46424H39.036H42.56C42.5904 4.32493 42.6075 4.18123 42.6075 4.03389V4.00093C42.6075 2.77768 41.5252 1.78571 40.1895 1.78571H39.036V0H34.5718V1.78571H33.3343C31.9994 1.78571 31.0004 2.77768 31.0004 4.00093V4.03399C31.0004 4.18133 31.0164 4.32502 31.0442 4.46433L34.5718 4.46424Z" fill="black"/>
<path d="M45.4566 6.25H45.2861H40.1896H33.3343H28.1513C27.0048 6.25 25.8031 6.69192 25.1825 7.51517C24.9191 7.86335 24.7503 8.27325 24.7503 8.75803V13.3723V14.2741V15.1768V35.5858V36.4885V37.3902V42.1367C24.7503 42.291 24.7798 42.4474 24.8103 42.6028C25.0987 44.0858 26.6745 45.5358 28.1513 45.5358H29.2969H44.3112H45.4569C47.0889 45.5358 47.9649 43.7671 47.9649 42.1348V8.75803C47.9646 7.12582 47.0887 6.25 45.4566 6.25ZM38.3334 22.3213H41.8968L40.7915 23.7401L35.7218 30.2507L35.0923 31.0588L33.7727 32.7526L35.9682 25H35.1647H34.2719H33.3791H30.8184L32.9274 22.2919L33.5748 21.4606L34.2167 20.6356L35.9435 18.4178L38.9416 14.5677L36.9691 21.5338L36.7468 22.3213H38.3334Z" fill="black"/>
</g>
<defs>
<clipPath id="clip0_17_100">
<rect width="50" height="50" fill="white"/>
</clipPath>
</defs>
</svg>
